# xmcd CD database file
#
# Track frame offsets:
#	150
#	37085
#	57682
#	80457
#	105182
#	124770
#	149902
#	169702
#
# Disc length: 2716 seconds
#
# Revision: 1
# Processed by: cddbd v1.4PL0 Copyright (c) Steve Scherf et al.
# Submitted via: CDex 1.40Release
#
DISCID=710a9a08
DTITLE=Spirit Force - The Dreamcatcher...
DYEAR=1994
DGENRE=Native American
TTITLE0=Dreamcatcher
TTITLE1=Prayers To The Web
TTITLE2=Sacrifice Of The Eagles
TTITLE3=Astrial Body Of Tiowa
TTITLE4=In The Hands Of The Dreamcatcher
TTITLE5=Return To The Center
TTITLE6=Ribs Of The Feather
TTITLE7=Blessings Of The Cloud People
EXTD=YEAR: 1994 ID3G: 64
EXTT0=
EXTT1=
EXTT2=
EXTT3=
EXTT4=
EXTT5=
EXTT6=
EXTT7=
PLAYORDER=
